<?xml version="1.0" encoding="UTF-8" standalone="no"?>
<svg
   xmlns:dc="http://purl.org/dc/elements/1.1/"
   xmlns:cc="http://creativecommons.org/ns#"
   xmlns:rdf="http://www.w3.org/1999/02/22-rdf-syntax-ns#"
   xmlns:svg="http://www.w3.org/2000/svg"
   xmlns="http://www.w3.org/2000/svg"
   xmlns:sodipodi="http://sodipodi.sourceforge.net/DTD/sodipodi-0.dtd"
   xmlns:inkscape="http://www.inkscape.org/namespaces/inkscape"
   enable-background="new 0 0 512 512"
   height="512px"
   id="Dart"
   version="1.1"
   viewBox="0 0 512 512"
   width="512px"
   xml:space="preserve"
   sodipodi:docname="iconfinder_Dart_3525374.svg"
   inkscape:version="0.92.3 (2405546, 2018-03-11)"><metadata
     id="metadata15"><rdf:RDF><cc:Work
         rdf:about=""><dc:format>image/svg+xml</dc:format><dc:type
           rdf:resource="http://purl.org/dc/dcmitype/StillImage" /></cc:Work></rdf:RDF></metadata><defs
     id="defs13" /><sodipodi:namedview
     pagecolor="#ffffff"
     bordercolor="#666666"
     borderopacity="1"
     objecttolerance="10"
     gridtolerance="10"
     guidetolerance="10"
     inkscape:pageopacity="0"
     inkscape:pageshadow="2"
     inkscape:window-width="1920"
     inkscape:window-height="1023"
     id="namedview11"
     showgrid="false"
     inkscape:zoom="0.4609375"
     inkscape:cx="256"
     inkscape:cy="256"
     inkscape:window-x="0"
     inkscape:window-y="0"
     inkscape:window-maximized="1"
     inkscape:current-layer="Dart" /><g
     id="g8"
     transform="rotate(-90,255.99972,255.99986)"><path
       d="m 242.633,394.779 c -79.31,0 -143.826,-64.529 -143.826,-143.825 0,-79.324 64.516,-143.839 143.826,-143.839 79.311,0 143.84,64.516 143.84,143.839 0,29.977 -9.234,57.833 -24.99,80.9 l 28.646,27.597 c 22.28,-30.41 35.448,-67.916 35.448,-108.504 0,-101.514 -82.294,-183.808 -183.808,-183.808 -101.514,0 -183.808,82.293 -183.808,183.808 0,101.514 82.293,183.807 183.808,183.807 47.778,0 91.294,-18.231 123.981,-48.113 l -30.852,-25.456 c -24.993,20.952 -57.177,33.594 -92.265,33.594 z"
       id="path2"
       inkscape:connector-curvature="0" /><path
       d="m 332.242,303.686 c 9.103,-15.467 14.33,-33.488 14.33,-52.731 0,-57.522 -46.625,-104.147 -104.133,-104.147 -57.522,0 -104.148,46.625 -104.148,104.147 0,57.508 46.626,104.134 104.148,104.134 22.818,0 43.923,-7.344 61.082,-19.793 l -37.05,-30.57 c -7.138,3.099 -15.006,4.828 -23.283,4.828 -32.366,0 -58.604,-26.236 -58.604,-58.606 0,-32.365 26.239,-58.604 58.604,-58.604 32.362,0 58.604,26.239 58.604,58.604 0,7.029 -1.265,13.755 -3.537,19.997 z"
       id="path4"
       inkscape:connector-curvature="0" /><path
       d="m 453.709,405.172 -32.604,-31.611 c 0.373,-0.549 -2.334,-1.516 -4.999,-1.607 l -26.233,3.906 -1.658,-1.587 -104.824,-100.988 0.241,-0.271 c 0.672,-0.753 0.605,-1.907 -0.147,-2.579 l -0.027,-0.024 c -0.753,-0.672 -1.908,-0.606 -2.579,0.147 l -0.268,0.3 c -3.884,-2.614 -8.93,-2.601 -12.778,-0.096 l -24.926,-19.23 c -0.212,-0.164 -0.641,0 -0.971,0.369 l -0.012,0.014 c -0.33,0.37 -0.443,0.814 -0.256,1.007 l 21.991,22.62 c -1.913,4.063 -1.309,8.956 1.672,12.448 l -0.268,0.301 c -0.672,0.753 -0.605,1.908 0.147,2.579 l 0.027,0.024 c 0.753,0.672 1.907,0.605 2.579,-0.147 l 0.242,-0.271 112.276,92.641 4.202,3.468 -2.535,-2.091 -0.878,26.063 c -0.071,2.126 0.852,4.164 2.497,5.513 l 34.828,28.551 c 0.689,0.564 1.723,0.069 1.715,-0.821 l -0.261,-28.027 13.403,11.062 c 0.666,0.552 1.501,0.788 2.313,0.725 0.501,-0.038 0.986,-0.204 1.427,-0.47 0.096,-0.057 0.194,-0.105 0.284,-0.174 0.03,-0.023 0.056,-0.055 0.085,-0.078 0.133,-0.107 0.264,-0.219 0.381,-0.35 l 0.006,-0.006 c 0,-0.001 0.001,-0.001 0.002,-0.002 l 0.041,-0.047 c 0.001,-10e-4 0.001,-10e-4 0.001,-10e-4 l 0.007,-0.007 c 0.244,-0.274 0.422,-0.586 0.557,-0.91 0.023,-0.057 0.058,-0.111 0.078,-0.17 0.002,-0.006 0.002,-0.014 0.005,-0.02 0.132,-0.383 0.191,-0.785 0.176,-1.184 -0.028,-0.814 -0.358,-1.618 -0.983,-2.219 l -8.428,-8.109 -4.006,-3.859 27.816,-2.928 c 0.914,-0.097 1.3,-1.215 0.642,-1.854 z"
       id="path6"
       inkscape:connector-curvature="0" /></g></svg>